<?xml version="1.0" encoding="utf-8"?>
<!-- Generator: Adobe Illustrator 25.4.1, SVG Export Plug-In . SVG Version: 6.00 Build 0)  -->
<svg version="1.1" id="fb0462f1-4822-46c6-85a1-002b71cfcb82"
	 xmlns="http://www.w3.org/2000/svg" xmlns:xlink="http://www.w3.org/1999/xlink" x="0px" y="0px" viewBox="0 0 980.5 751.9"
	 style="enable-background:new 0 0 980.5 751.9;" xml:space="preserve">
<style type="text/css">
	.st0{fill:#f5f5f5;}
	.st1{fill:none;stroke:#3F3D56;stroke-width:2;stroke-miterlimit:10;}
	.st2{fill:#6C63FF;}
	.st3{clip-path:url(#SVGID_00000048482831526448683020000006795003375002675850_);}
	.st4{fill:#25214B;}
	.st5{clip-path:url(#SVGID_00000011718671668325593610000000381899870979735439_);}
	.st6{fill:#851CFC;}
	.st7{fill:#630343;}
</style>
<rect x="313.5" y="117" class="st0" width="2" height="107"/>
<rect x="313.5" y="255.9" class="st0" width="2" height="94.1"/>
<rect x="310.5" y="365" class="st0" width="155" height="2"/>
<rect x="244.5" y="392" class="st0" width="2" height="85"/>
<rect x="262.5" y="492" class="st0" width="235" height="2"/>
<path class="st1" d="M513.5,477"/>
<path class="st1" d="M513.5,395"/>
<rect x="691.5" y="49" class="st0" width="2" height="101"/>
<rect x="529.5" y="166" class="st0" width="147" height="2"/>
<rect x="512.5" y="182" class="st0" width="2" height="135"/>
<path class="st0" d="M314.5,257c-9.4,0-17-7.6-17-17s7.6-17,17-17s17,7.6,17,17C331.5,249.4,323.9,257,314.5,257z M314.5,225
	c-8.3,0-15,6.7-15,15s6.7,15,15,15s15-6.7,15-15C329.5,231.7,322.8,225,314.5,225z"/>
<path class="st0" d="M246.5,510c-9.4,0-17-7.6-17-17s7.6-17,17-17s17,7.6,17,17l0,0C263.5,502.4,255.9,510,246.5,510z M246.5,478
	c-8.3,0-15,6.7-15,15s6.7,15,15,15s15-6.7,15-15l0,0C261.5,484.7,254.8,478,246.5,478z"/>
<circle class="st2" cx="315.5" cy="366" r="16"/>
<rect x="728.5" y="239" class="st0" width="166" height="2"/>
<rect x="711.5" y="255.9" class="st0" width="2" height="94.1"/>
<rect x="562.5" y="365" class="st0" width="133" height="2"/>
<rect x="796.5" y="374" class="st0" width="138" height="2"/>
<rect x="780.5" y="392" class="st0" width="2" height="85"/>
<rect x="529.5" y="492" class="st0" width="235" height="2"/>
<rect x="512.5" y="415" class="st0" width="2" height="62"/>
<circle class="st2" cx="712.5" cy="240" r="16"/>
<path class="st0" d="M692.5,183c-9.4,0-17-7.6-17-17s7.6-17,17-17c9.4,0,17,7.6,17,17C709.5,175.4,701.9,183,692.5,183z M692.5,151
	c-8.3,0-15,6.7-15,15s6.7,15,15,15s15-6.7,15-15C707.5,157.7,700.8,151,692.5,151L692.5,151z"/>
<path class="st0" d="M513.5,183c-9.4,0-17-7.6-17-17s7.6-17,17-17c9.4,0,17,7.6,17,17C530.5,175.4,522.9,183,513.5,183z M513.5,151
	c-8.3,0-15,6.7-15,15s6.7,15,15,15c8.3,0,15-6.7,15-15C528.5,157.7,521.8,151,513.5,151L513.5,151z"/>
<path class="st0" d="M780.5,393c-9.4,0-17-7.6-17-17s7.6-17,17-17c9.4,0,17,7.6,17,17l0,0C797.5,385.4,789.9,393,780.5,393z
	 M780.5,361c-8.3,0-15,6.7-15,15s6.7,15,15,15s15-6.7,15-15l0,0C795.5,367.7,788.8,361,780.5,361z"/>
<circle class="st2" cx="780.5" cy="493" r="16"/>
<path class="st0" d="M513.5,510c-9.4,0-17-7.6-17-17s7.6-17,17-17c9.4,0,17,7.6,17,17l0,0C530.5,502.4,522.9,510,513.5,510z
	 M513.5,478c-8.3,0-15,6.7-15,15s6.7,15,15,15c8.3,0,15-6.7,15-15l0,0C528.5,484.7,521.8,478,513.5,478z"/>
<path class="st0" d="M711.5,383c-9.4,0-17-7.6-17-17s7.6-17,17-17c9.4,0,17,7.6,17,17l0,0C728.5,375.4,720.9,383,711.5,383z
	 M711.5,351c-8.3,0-15,6.7-15,15s6.7,15,15,15s15-6.7,15-15C726.5,357.7,719.8,351,711.5,351z"/>
<path class="st0" d="M246.5,342c-11,0-20,9-20,20s9,20,20,20s20-9,20-20C266.5,351,257.5,342,246.5,342z M246.5,348c3.3,0,6,2.7,6,6
	s-2.7,6-6,6s-6-2.7-6-6C240.5,350.7,243.2,348,246.5,348z M246.5,376.9c-4.8,0-9.3-2.4-12-6.4c0.1-4,8-6.2,12-6.2s11.9,2.2,12,6.2
	C255.8,374.5,251.3,376.9,246.5,376.9z"/>
<path class="st0" d="M315.5,69c-11,0-20,9-20,20s9,20,20,20s20-9,20-20C335.5,78,326.5,69,315.5,69z M315.5,75c3.3,0,6,2.7,6,6
	s-2.7,6-6,6s-6-2.7-6-6C309.5,77.7,312.2,75,315.5,75z M315.5,103.9c-4.8,0-9.3-2.4-12-6.4c0.1-4,8-6.2,12-6.2s11.9,2.2,12,6.2
	C324.8,101.5,320.3,103.9,315.5,103.9z"/>
<path class="st0" d="M692.5,0c-11,0-20,9-20,20s9,20,20,20c11,0,20-9,20-20C712.5,9,703.5,0,692.5,0z M692.5,6c3.3,0,6,2.7,6,6
	s-2.7,6-6,6s-6-2.7-6-6C686.5,8.7,689.2,6,692.5,6z M692.5,34.9c-4.8,0-9.3-2.4-12-6.4c0.1-4,8-6.2,12-6.2s11.9,2.2,12,6.2
	C701.8,32.5,697.3,34.9,692.5,34.9z"/>
<path class="st0" d="M922.5,219c-11,0-20,9-20,20s9,20,20,20c11,0,20-9,20-20C942.5,228,933.5,219,922.5,219z M922.5,225
	c3.3,0,6,2.7,6,6s-2.7,6-6,6s-6-2.7-6-6C916.5,227.7,919.2,225,922.5,225z M922.5,253.9c-4.8,0-9.3-2.4-12-6.4c0.1-4,8-6.2,12-6.2
	s11.9,2.2,12,6.2C931.8,251.5,927.3,253.9,922.5,253.9z"/>
<path class="st0" d="M960.5,354c-11,0-20,9-20,20s9,20,20,20s20-9,20-20C980.5,363,971.5,354,960.5,354z M960.5,360c3.3,0,6,2.7,6,6
	s-2.7,6-6,6s-6-2.7-6-6C954.5,362.7,957.2,360,960.5,360z M960.5,388.9c-4.8,0-9.3-2.4-12-6.4c0.1-4,8-6.2,12-6.2s11.9,2.2,12,6.2
	C969.8,386.5,965.3,388.9,960.5,388.9z"/>
<g>
	<g id="surface1">
		<g>
			<g>
				<g>
					<g>
						<defs>
							<rect id="SVGID_1_" x="511.3" y="328.8" width="47.8" height="51.8"/>
						</defs>
						<clipPath id="SVGID_00000044139338397554526330000017958428547629951136_">
							<use xlink:href="#SVGID_1_"  style="overflow:visible;"/>
						</clipPath>
						<g style="clip-path:url(#SVGID_00000044139338397554526330000017958428547629951136_);">
							<path class="st4" d="M516.2,342.9c0.5-0.6,0.9-1.1,1.5-1.6c2.8-2.8,6.3-4.6,9.9-5.5v-6.5c-4.8,1-9.4,3.3-13.1,7
								c-0.8,0.8-1.5,1.6-2.2,2.5c0.6,0.5,1.1,1,1.7,1.5C514.8,341.2,515.6,342.1,516.2,342.9 M532.8,380.4c-5.9,0-11.8-2-16.6-6
								c7.2-8.6,6.4-12.8-1.9-17.9c0.6-1,6.4-10.5,7.2-11.4c3-2.9,6.8-4.4,10.6-4.4s7.7,1.5,10.6,4.4c5.9,5.9,5.9,15.3,0,21.2
								c-3,2.9-6.8,4.4-10.6,4.4v5.4c5.2,0,10.5-2,14.4-6c8-8,8-20.9,0-28.9c-3.8-3.8-8.6-5.7-13.5-6v-6.5c6.5,0.1,13,2.6,18,7.6
								c10.1,10.1,10.1,26.4,0,36.5C546,377.9,539.4,380.4,532.8,380.4"/>
						</g>
					</g>
				</g>
			</g>
		</g>
		<g>
			<g>
				<g>
					<g>
						<defs>
							<rect id="SVGID_00000018945984768038411010000000551911546888439724_" x="469.6" y="332.7" width="47.3" height="51.6"/>
						</defs>
						<clipPath id="SVGID_00000004528047065330909420000013670070673656030094_">
							<use xlink:href="#SVGID_00000018945984768038411010000000551911546888439724_"  style="overflow:visible;"/>
						</clipPath>
						<g style="clip-path:url(#SVGID_00000004528047065330909420000013670070673656030094_);">
							<path class="st6" d="M501,383.9v-6.5c3.6-0.8,7.1-2.6,9.9-5.5c0.5-0.5,1-1.1,1.5-1.6c0.7,0.9,1.4,1.7,2.2,2.5
								c0.6,0.6,1.1,1.1,1.7,1.5c-0.7,0.9-1.4,1.7-2.2,2.5C510.3,380.6,505.7,383,501,383.9 M495.5,384.4c-2.5-0.1-7.1-0.5-12.1-3.1
								c-0.4-0.2-3.5-2-6-4.5c-10.1-10.1-10.1-26.4,0-36.5c5-5,11.7-7.5,18.3-7.5c5.9,0,11.8,2,16.6,6c-7.5,7.5-6.4,11.7,1.9,17.7
								c-0.6,1-6.4,10.7-7.2,11.5c-3,3-6.8,4.4-10.6,4.4s-7.7-1.5-10.6-4.4c-5.9-5.9-5.9-15.3,0-21.2c3-2.9,6.8-4.4,10.6-4.4
								c0-1.8,0-3.6,0-5.4c-2,0-5.7,0.3-9.7,2.4c-0.4,0.2-2.8,1.6-4.8,3.6c-8,8-8,20.9,0,28.9c1.9,1.9,4.5,3.4,4.6,3.5
								c3.6,2,7,2.4,8.9,2.5C495.5,380.1,495.5,382.3,495.5,384.4z"/>
						</g>
					</g>
				</g>
			</g>
		</g>
		<g>
			<g transform="translate(108.711824, 247.212713)">
				<path class="st4" d="M375.5,147L375.5,147c0.1-1.8-1.1-3-4.6-3h-2.2c-0.2,0-0.3,0.2-0.3,0.4v8.5c0,0.2,0.1,0.4,0.3,0.4h2.9
					c3.3,0,4.5-0.8,4.5-2.5c0-1.4-1.6-2.1-3.5-2.1L375.5,147z M370.9,144.2c1.9,0,2.5,0.8,2.5,2.1c0,0.6-0.4,2.3-2.1,2.3h-0.6v-4.5
					L370.9,144.2C370.9,144.1,370.9,144.2,370.9,144.2z M371.3,148.8c1.5,0,2.2,0.8,2.2,2.1c0,1.1-0.8,2.1-2.2,2.1h-0.6v-4.2H371.3z
					"/>
			</g>
		</g>
		<g>
			<g transform="translate(126.230424, 247.212713)">
				<path class="st4" d="M363,153.4c2.1,0,2.7-1,2.7-3.2v-3.9c0-0.2-0.1-0.4-0.3-0.4H364c-0.1,0-0.1,0.1-0.1,0.1v1.5
					c0,0.1,0,0.2,0.1,0.3l1.6,2.1v0.2c0,2.2-0.8,3.1-2.3,3.1h-0.2c-0.7,0-1.1-0.6-1.1-3.1v-3.9c0-0.2-0.1-0.4-0.3-0.4h-1.9
					c-0.2,0-0.3,0.2-0.3,0.4v3.9C359.4,152.4,360.4,153.4,363,153.4z"/>
			</g>
		</g>
		<g>
			<g transform="translate(140.889878, 247.212713)">
				<path class="st4" d="M354.4,146.3c-0.1-0.2-0.3-0.4-0.6-0.4h-1.9c-0.2,0-0.3,0.2-0.2,0.4l2.3,4.1v2.5c0,0.2,0.1,0.4,0.3,0.4h1.7
					c0.2,0,0.3-0.2,0.3-0.4v-2.5l2.3-4.1c0.1-0.2,0-0.4-0.2-0.4h-2c-0.3,0-0.3,0.2-0.2,0.4l1.1,2l-1,1.6L354.4,146.3z"/>
			</g>
		</g>
		<g>
			<g transform="translate(154.403228, 247.212713)">
				<path class="st6" d="M350.4,143.8c-3.4,0-5,1.6-5,4.8c0,3.2,1.6,4.8,5,4.8s5-1.6,5-4.8C355.5,145.4,353.8,143.8,350.4,143.8z
					 M350.4,144c1.5,0,2.5,2.6,2.5,4.6c0,2-1.1,4.7-2.5,4.7c-1.4,0-2.5-2.6-2.5-4.7C347.9,146.5,348.9,144,350.4,144z"/>
			</g>
		</g>
		<g>
			<g transform="translate(175.664698, 247.212713)">
				<path class="st6" d="M335,146c-0.1,0-0.1,0.1-0.1,0.1v0.1c0,0.1,0,0.1,0.1,0.2l0.5,0.6v6c0,0.2,0.1,0.4,0.3,0.4h1.9
					c0.1,0,0.1-0.1,0.1-0.1v-0.1c0-0.1,0-0.2-0.1-0.3l-2-2.6v-3.1l4.4,5.7c0.2,0.2,0.4,0.4,0.5,0.4h0.5c0.2,0,0.3-0.2,0.3-0.4v-6.6
					c0-0.2-0.1-0.4-0.3-0.4h-1.5c-0.1,0-0.1,0.1-0.1,0.1v0.1c0,0.1,0,0.2,0.1,0.3l1.6,2.1v2.4h-0.1l-3.6-4.6
					c-0.2-0.2-0.3-0.3-0.5-0.3h-2V146z"/>
			</g>
		</g>
		<g>
			<g transform="translate(190.895413, 247.212713)">
				<path class="st4" d="M327.5,148.6c0,3.2,1.7,4.8,5,4.8l3.1-0.2c0.3-0.1,0.3-0.2,0.3-0.4v-1.7c0-0.2-0.1-0.3-0.2-0.3l-0.2-0.1
					c-0.1,0-0.1-0.1-0.2-0.1c-0.1,0-0.2,0.1-0.3,0.2l-2.4,2.3c-1.5,0-2.6-2.5-2.6-4.6c0-2,1.2-4.6,2.6-4.6l2.4,2.3
					c0.1,0.1,0.2,0.2,0.3,0.2c0.1,0,0.1,0,0.2-0.1l0.2-0.1c0.2-0.1,0.2-0.2,0.2-0.3v-1.7c0-0.2-0.1-0.3-0.3-0.4l-3.1-0.2
					C329.2,143.8,327.5,145.4,327.5,148.6z"/>
			</g>
		</g>
		<g>
			<g transform="translate(209.479687, 247.212713)">
				<path class="st4" d="M326.1,146.3c0-0.2-0.1-0.4-0.3-0.4h-1.7c-0.2,0-0.3,0.2-0.3,0.4v3.1h-2.6v-3.1c0-0.2-0.1-0.4-0.3-0.4h-1.7
					c-0.2,0-0.3,0.2-0.3,0.4v6.6c0,0.2,0.1,0.4,0.3,0.4h1.7c0.2,0,0.3-0.2,0.3-0.4v-3.3h2.6v3.3c0,0.2,0.1,0.4,0.3,0.4h1.7
					c0.2,0,0.3-0.2,0.3-0.4C326.1,152.9,326.1,146.3,326.1,146.3z"/>
			</g>
		</g>
		<g>
			<g transform="translate(227.232216, 247.212713)">
				<path class="st4" d="M313.8,146.3c-0.1-0.2-0.3-0.4-0.5-0.4h-0.7c-0.2,0-0.4,0.2-0.5,0.4l-3,6.6c-0.1,0.2,0,0.4,0.2,0.4h1.9
					c0.3,0,0.4-0.2,0.3-0.4l-1-2.2h2.6l1,2.2c0.1,0.2,0.3,0.4,0.5,0.4h1.8c0.2,0,0.3-0.2,0.2-0.4L313.8,146.3z M313.3,150.6h-2.7
					l1.3-3.1L313.3,150.6z"/>
			</g>
		</g>
		<g>
			<g transform="translate(242.125596, 247.212713)">
				<path class="st4" d="M303.2,146c-0.2,0-0.3,0.2-0.3,0.4v6.6c0,0.2,0.1,0.4,0.3,0.4h1.7c0.2,0,0.3-0.2,0.3-0.4v-6.6
					c0-0.2-0.1-0.4-0.3-0.4H303.2z M302.9,144c0,0.7,0.6,1.2,1.2,1.2c0.7,0,1.2-0.6,1.2-1.2s-0.6-1.2-1.2-1.2
					C303.4,142.8,302.9,143.4,302.9,144z"/>
			</g>
		</g>
		<g>
			<g transform="translate(250.546919, 247.212713)">
				<path class="st4" d="M298.3,146c-0.1,0-0.1,0.1-0.1,0.1v0.1c0,0.1,0,0.1,0.1,0.2l0.5,0.6v6c0,0.2,0.1,0.4,0.3,0.4h1.9
					c0.1,0,0.1-0.1,0.1-0.1v-0.1c0-0.1,0-0.2-0.1-0.3l-2-2.6v-3.1l4.4,5.7c0.2,0.2,0.4,0.4,0.5,0.4h0.5c0.2,0,0.3-0.2,0.3-0.4v-6.6
					c0-0.2-0.1-0.4-0.3-0.4h-1.5c-0.1,0-0.1,0.1-0.1,0.1v0.1c0,0.1,0,0.2,0.1,0.3l1.6,2.1v2.4h-0.1l-3.6-4.6
					c-0.2-0.2-0.3-0.3-0.5-0.3h-2V146z"/>
			</g>
		</g>
	</g>
	<path class="st7" d="M521.4,357.7"/>
</g>
</svg>
